<svg xmlns="http://www.w3.org/2000/svg" viewBox="0 0 87.74 87.74"><defs><style>.cls-1{fill:#163d3f;}</style></defs><g id="Слой_2" data-name="Слой 2"><g id="about_me" data-name="about me"><path class="cls-1" d="M60.32,0H27.42A27.42,27.42,0,0,0,0,27.42v32.9A27.42,27.42,0,0,0,27.42,87.74h32.9A27.42,27.42,0,0,0,87.74,60.32V27.42A27.42,27.42,0,0,0,60.32,0ZM79.51,60.32A19.21,19.21,0,0,1,60.32,79.51H27.42A19.21,19.21,0,0,1,8.23,60.32V27.42A19.2,19.2,0,0,1,27.42,8.23h32.9A19.21,19.21,0,0,1,79.51,27.42Z"/><path class="cls-1" d="M43.87,21.93A21.94,21.94,0,1,0,65.8,43.87,21.95,21.95,0,0,0,43.87,21.93Zm0,35.65A13.71,13.71,0,1,1,57.58,43.87,13.73,13.73,0,0,1,43.87,57.58Z"/><circle class="cls-1" cx="67.45" cy="20.29" r="2.92"/></g></g></svg>