<svg xmlns="http://www.w3.org/2000/svg" width="1790" height="167" viewBox="0 0 1790 167"><g><g><path fill="#0f1017" d="M799.242.649V66.95l-16.483 16.483L766 100.191h-33.059V166.4H699.7V33.892l16.482-16.483L732.941.649zM766 33.892h-33.059V66.95H766z"/></g><g><path fill="#0f1017" d="M982.259 33.873V166.4h-33.224v-66.236h-33.021V166.4h-33.215V33.873L916.014.649h33.021zm-33.224-.001h-33.021v33.049h33.021z"/></g><g><path fill="#0f1017" d="M1165.202 66.922v-33.05h33.37v33.05h33.206v-33.05L1198.573.65h-66.456V166.4h33.085v-66.236h33.37V166.4h33.206v-66.236l-33.205-33.242z"/></g><g><path fill="#0f1017" d="M1730.761.695h-33.242v66.208l33.242-33.242z"/></g><g><path fill="#0f1017" d="M1664.185 66.903h33.334l33.242 33.242v66.3h-33.242v-66.3h-33.334v66.3h-33.15V.695h33.15z"/></g><g><path fill="#0f1017" d="M1605.877 133.204v.092l-33.15 33.15h-33.15l-.093-.092v-33.15z"/></g><g><path fill="#0f1017" d="M1589.21 83.57v16.576h-49.817l-33.15-33.243V33.845L1539.301.787V.695h.092v33.242h-.092v33.058h33.334z"/></g><g><path fill="#0f1017" d="M1539.577 133.204v33.242l-.092-.092-33.15-33.15z"/></g><g><path fill="#0f1017" d="M1539.485 66.903v33.243h-.091l-33.151-33.243z"/></g><g><path fill="#0f1017" d="M1539.485 66.903v33.243h-.091l-33.151-33.243z"/></g><g><path fill="#0f1017" d="M1605.877 100.237v33.06l-33.15 33.148h-.092v-66.208h-33.242v-.09l-33.15-33.244V33.937l33.15-33.15V.695h33.242l33.15 33.15v.092h-66.484v33.058h33.334z"/></g><g><path fill="#0f1017" d="M1789.16.695v165.75h-33.15v-132.6h-.091V.695z"/></g><g><path fill="#0f1017" d="M857.642.65V166.4h-33.15V33.8h-.092V.65z"/></g><g><path fill="#0f1017" d="M1106.958.65h-99.423l-.119 33.223h33.168V166.4h33.215V33.873h33.16z"/></g><g><path fill="#0f1017" d="M1381.635.695h33.242v165.75l-33.242-33.241z"/></g><g><path fill="#0f1017" d="M1481.085.695v132.6l-33.15 33.15h-.092V.695z"/></g><g><path fill="#0f1017" d="M1447.843 166.425h-32.966v-33.242h32.966z"/></g><g><path fill="#0f1017" d="M1356.478 33.891v99.359l-33.243 33.15h-33.057l-33.242-33.15V33.891L1290.085.649h33.15zm-66.3 99.358h33.058V33.891h-33.058z"/></g><g><path fill="#0f1017" d="M222.29 66.922v-33.05h33.37v33.05h33.206v-33.05L255.66.65h-66.456V166.4h33.085v-66.236h33.37V166.4h33.206v-66.236L255.66 66.922z"/></g><g><path fill="#d0b5b5" d="M100.426.65H67.184v66.207l33.242-33.242z"/></g><g><path fill="#0f1017" d="M33.85 66.857h33.334l33.242 33.242v66.3H67.184v-66.3H33.85v66.3H.7V.65h33.15z"/></g><g><path fill="#0f1017" d="M161.436.65V166.4h-33.15V33.8h-.092V.65z"/></g><g><path fill="#0f1017" d="M349.876.65V166.4h-33.15V33.8h-.092V.65z"/></g><g><path fill="#0f1017" d="M410.887 133.158V.65h-33.243V33.8h.093l-.093.092v99.266h.093l33.15 33.242h66.3v-33.242z"/></g><g><path fill="#0f1017" d="M528.989 133.158V.65h-33.243V33.8h.093l-.093.092v99.266h.093l33.15 33.242h66.3v-33.242z"/></g></g></svg>